<svg xmlns="http://www.w3.org/2000/svg" version="1.1" xmlns:xlink="http://www.w3.org/1999/xlink" xmlns:svgjs="http://svgjs.dev/svgjs" width="1000" height="625" viewBox="0 0 1000 625"><g transform="matrix(1,0,0,1,0,0)"><svg viewBox="0 0 512 320" data-background-color="#ffffff" preserveAspectRatio="xMidYMid meet" height="625" width="1000" xmlns="http://www.w3.org/2000/svg" xmlns:xlink="http://www.w3.org/1999/xlink"><g id="tight-bounds" transform="matrix(1,0,0,1,0,0)"><svg viewBox="0 0 512 320" height="320" width="512"><g><svg></svg></g><g><svg viewBox="0 0 512 320" height="320" width="512"><g><path xmlns="http://www.w3.org/2000/svg" d="M96 160c0-88.366 71.634-160 160-160 88.366 0 160 71.634 160 160 0 88.366-71.634 160-160 160-88.366 0-160-71.634-160-160zM256 312.846c84.414 0 152.846-68.431 152.846-152.846 0-84.414-68.431-152.846-152.846-152.846-84.414 0-152.846 68.431-152.846 152.846 0 84.414 68.431 152.846 152.846 152.846z" fill="#8bc53f" fill-rule="nonzero" stroke="none" stroke-width="1" stroke-linecap="butt" stroke-linejoin="miter" stroke-miterlimit="10" stroke-dasharray="" stroke-dashoffset="0" font-family="none" font-weight="none" font-size="none" text-anchor="none" style="mix-blend-mode: normal" data-fill-palette-color="tertiary"></path></g><g transform="matrix(1,0,0,1,128,94.37113726386282)"><svg viewBox="0 0 256 131.25772547227436" height="131.25772547227436" width="256"><g><svg viewBox="0 0 256 131.25772547227436" height="131.25772547227436" width="256"><g transform="matrix(1,0,0,1,0,91.59175059823872)"><svg viewBox="0 0 256 39.66597487403563" height="39.66597487403563" width="256"><g id="textblocktransform"><svg viewBox="0 0 256 39.66597487403563" height="39.66597487403563" width="256" id="textblock"><g><svg viewBox="0 0 256 39.66597487403563" height="39.66597487403563" width="256"><g transform="matrix(1,0,0,1,0,0)"><svg width="256" viewBox="2.4700000286102295 -36.040000915527344 235.06092834472656 36.53000259399414" height="39.66597487403563" data-palette-color="#8bc53f"><g class="undefined-text-0" data-fill-palette-color="primary" id="text-0"><path d="M22.17-9.16L22.17-9.16Q22.17-7.98 21.67-7.08 21.17-6.18 20.34-5.57L20.34-5.57Q19.48-4.93 18.32-4.61 17.16-4.3 15.82-4.3L15.82-4.3Q14.23-4.3 12.9-4.69 11.57-5.08 10.6-5.88L10.6-5.88Q9.59-6.67 9.02-7.87 8.45-9.08 8.33-10.72L8.33-10.72 2.47-10.72Q2.49-8.15 3.5-6.18 4.52-4.2 6.25-2.73L6.25-2.73Q8.13-1.17 10.67-0.35 13.21 0.46 15.82 0.46L15.82 0.46Q18.29 0.46 20.51-0.16 22.73-0.78 24.41-2.03L24.41-2.03Q26.07-3.22 27.06-5.03 28.05-6.84 28.05-9.2L28.05-9.2Q28.05-11.77 26.92-13.73 25.78-15.7 23.9-17.11L23.9-17.11Q22.39-18.24 20.59-19.03 18.8-19.82 16.92-20.36L16.92-20.36Q15.43-20.8 14.07-21.31 12.72-21.83 11.67-22.51L11.67-22.51Q10.64-23.19 10.03-24.11 9.42-25.02 9.4-26.25L9.4-26.25Q9.4-27.39 9.86-28.32 10.33-29.25 11.16-29.91L11.16-29.91Q11.99-30.54 13.12-30.9 14.26-31.25 15.6-31.25L15.6-31.25Q17.14-31.25 18.32-30.8 19.51-30.35 20.34-29.57L20.34-29.57Q21.14-28.76 21.59-27.65 22.05-26.54 22.17-25.2L22.17-25.2 27.98-25.2Q27.98-27.61 27.01-29.6 26.05-31.59 24.39-33.03L24.39-33.03Q22.73-34.45 20.5-35.24 18.26-36.04 15.67-36.04L15.67-36.04Q13.23-36.04 11.02-35.36 8.81-34.69 7.15-33.42L7.15-33.42Q5.49-32.13 4.52-30.31 3.54-28.49 3.54-26.22L3.54-26.22Q3.54-24.12 4.38-22.45 5.22-20.78 6.71-19.46L6.71-19.46Q8.2-18.16 10.31-17.13 12.43-16.09 14.94-15.38L14.94-15.38Q16.58-14.92 17.91-14.34 19.24-13.77 20.21-13.06L20.21-13.06Q21.14-12.3 21.66-11.35 22.17-10.4 22.17-9.16ZM57.74-15.41L57.74-15.41 57.74-20.09Q57.74-22.31 57.35-24.38 56.96-26.44 56.17-28.25L56.17-28.25Q55.47-29.93 54.42-31.35 53.37-32.76 51.95-33.81L51.95-33.81Q50.53-34.86 48.75-35.45 46.97-36.04 44.85-36.04L44.85-36.04Q42.75-36.04 41-35.46 39.26-34.89 37.89-33.84L37.89-33.84Q36.47-32.76 35.43-31.31 34.4-29.86 33.69-28.13L33.69-28.13Q32.96-26.32 32.59-24.29 32.22-22.27 32.22-20.09L32.22-20.09 32.22-15.41Q32.22-13.33 32.57-11.36 32.91-9.4 33.59-7.67L33.59-7.67Q34.3-5.86 35.36-4.35 36.42-2.83 37.84-1.76L37.84-1.76Q39.23-0.71 41-0.11 42.77 0.49 44.89 0.49L44.89 0.49Q46.95 0.49 48.67-0.07 50.39-0.63 51.8-1.61L51.8-1.61Q53.27-2.69 54.39-4.19 55.52-5.69 56.27-7.47L56.27-7.47Q56.98-9.25 57.36-11.25 57.74-13.26 57.74-15.41ZM51.83-20.14L51.83-20.14 51.83-15.41Q51.8-14.09 51.67-12.81 51.54-11.52 51.24-10.35L51.24-10.35Q50.9-9.01 50.33-7.9 49.75-6.79 48.9-5.98L48.9-5.98Q48.17-5.27 47.15-4.86 46.14-4.44 44.89-4.44L44.89-4.44Q43.6-4.44 42.61-4.87 41.62-5.3 40.87-6.03L40.87-6.03Q40.09-6.81 39.54-7.95 38.99-9.08 38.67-10.4L38.67-10.4Q38.38-11.57 38.25-12.84 38.13-14.11 38.13-15.41L38.13-15.41 38.13-20.14Q38.13-21.46 38.27-22.77 38.4-24.07 38.69-25.24L38.69-25.24Q39.01-26.61 39.6-27.72 40.18-28.83 41.04-29.64L41.04-29.64Q41.75-30.3 42.7-30.68 43.65-31.05 44.85-31.05L44.85-31.05Q46.09-31.05 47.07-30.66 48.04-30.27 48.8-29.59L48.8-29.59Q49.66-28.81 50.25-27.7 50.85-26.59 51.22-25.24L51.22-25.24Q51.54-24.07 51.67-22.78 51.8-21.48 51.83-20.14ZM77.9-30.69L88.86-30.69 88.86-35.55 61.18-35.55 61.18-30.69 72.07-30.69 72.07 0 77.9 0 77.9-30.69ZM117.01-4.83L100.04-4.83 100.04-35.55 94.16-35.55 94.16 0 117.01 0 117.01-4.83ZM129.75-8.18L140.91-8.18 143.3 0 149.38 0 138-35.55 132.8-35.55 121.23 0 127.33 0 129.75-8.18ZM139.47-13.21L131.24-13.21 135.39-27.27 139.47-13.21Z" fill="#8bc53f" data-fill-palette-color="primary"></path><path d="M176.38-4.83L159.41-4.83 159.41-35.55 153.53-35.55 153.53 0 176.38 0 176.38-4.83ZM189.12-8.18L200.28-8.18 202.67 0 208.75 0 197.38-35.55 192.18-35.55 180.6 0 186.71 0 189.12-8.18ZM198.84-13.21L190.61-13.21 194.76-27.27 198.84-13.21ZM212.97-35.55L212.97 0 225.28 0Q227.92 0 230.17-0.67 232.43-1.34 234.07-2.66L234.07-2.66Q235.7-3.96 236.63-5.88 237.56-7.81 237.53-10.35L237.53-10.35Q237.53-11.79 237.13-13.1 236.73-14.4 235.95-15.48L235.95-15.48Q235.19-16.48 234.07-17.27 232.94-18.07 231.36-18.48L231.36-18.48 231.36-18.53Q232.43-18.97 233.25-19.52 234.07-20.07 234.73-20.8L234.73-20.8Q235.65-21.8 236.15-23.11 236.66-24.41 236.68-25.93L236.68-25.93Q236.68-28.42 235.74-30.24 234.8-32.06 233.14-33.23L233.14-33.23Q231.48-34.4 229.21-34.97 226.94-35.55 224.35-35.55L224.35-35.55 212.97-35.55ZM218.88-4.83L218.88-16.06 225.62-16.06Q227.06-16.04 228.18-15.64 229.31-15.23 230.09-14.5L230.09-14.5Q230.87-13.77 231.26-12.73 231.65-11.69 231.65-10.35L231.65-10.35Q231.65-9.08 231.17-8.04 230.7-7.01 229.82-6.3L229.82-6.3Q229.01-5.62 227.87-5.22 226.72-4.83 225.33-4.83L225.33-4.83 218.88-4.83ZM224.47-20.53L218.88-20.53 218.88-30.69 224.42-30.69Q225.94-30.66 227.18-30.33 228.43-30 229.26-29.27L229.26-29.27Q229.99-28.69 230.39-27.77 230.8-26.86 230.8-25.61L230.8-25.61Q230.8-24.44 230.36-23.54 229.92-22.63 229.16-22L229.16-22Q228.33-21.29 227.12-20.92 225.91-20.56 224.47-20.53L224.47-20.53Z" fill="#5d9943" data-fill-palette-color="accent"></path></g></svg></g></svg></g></svg></g></svg></g><g transform="matrix(1,0,0,1,78.88621704306206,0)"><svg viewBox="0 0 98.22756591387588 82.22756591387588" height="82.22756591387588" width="98.22756591387588"><g><svg xmlns="http://www.w3.org/2000/svg" xmlns:xlink="http://www.w3.org/1999/xlink" version="1.1" x="8" y="0" viewBox="0 0 100 100" enable-background="new 0 0 100 100" xml:space="preserve" height="82.22756591387588" width="82.22756591387588" class="icon-icon-0" data-fill-palette-color="accent" id="icon-0"><path d="M93.642 82.3L83.073 64.896c-1.998-3.294-3.686-9.331-3.688-13.181v-9.907h3.792c1.43 0 2.586-1.162 2.586-2.586 0-1.43-1.156-2.586-2.586-2.586h-6.376-0.002-9.382c-0.003 0-0.005 0-0.008 0h-6.368c-1.427 0-2.586 1.162-2.586 2.586 0 1.43 1.159 2.586 2.586 2.586h3.792l0.002 5.239-0.002 4.663c-0.003 3.854-1.69 9.892-3.688 13.181L50.576 82.3c-1.563 2.576-1.786 5.249-0.611 7.335 1.175 2.087 3.574 3.284 6.588 3.284H87.67c0 0 0 0 0.003 0 3.011 0 5.41-1.197 6.583-3.284C95.43 87.549 95.205 84.876 93.642 82.3zM65.568 67.573c2.485-4.092 4.436-11.059 4.438-15.863l0.003-4.663-0.003-5.239h4.206v9.907c0.003 4.795 1.952 11.762 4.438 15.863l5.19 8.548c-0.646-0.142-1.18-0.328-1.748-0.535-1.22-0.435-2.599-0.935-5.214-0.935-2.614 0-3.993 0.495-5.213 0.935-1.167 0.419-2.175 0.783-4.34 0.783-2.157 0-3.165-0.364-4.33-0.783-0.57-0.207-1.187-0.419-1.935-0.591L65.568 67.573zM89.747 87.1c-0.18 0.323-0.893 0.646-2.082 0.646H56.553c-1.185 0-1.899-0.323-2.079-0.646-0.182-0.324-0.091-1.102 0.525-2.117l4.623-7.613c1.003 0.137 1.729 0.379 2.498 0.656 1.218 0.435 2.597 0.935 5.206 0.935 2.614 0 3.996-0.495 5.214-0.935 1.169-0.419 2.177-0.782 4.339-0.782 2.163 0 3.171 0.363 4.338 0.782 1.063 0.385 2.301 0.788 4.319 0.895l3.686 6.067C89.835 85.998 89.929 86.775 89.747 87.1zM72.118 20.251l-1.112 1.783c-0.777 1.253-2.261 2.92-2.541 3.238-0.949 1.021-1.473 2.38-1.473 3.825 0 3.006 2.297 5.451 5.118 5.451s5.115-2.445 5.115-5.451c0-1.344-0.452-2.617-1.278-3.612l-0.132-0.151c-0.018-0.021-0.035-0.036-0.053-0.056l-0.051-0.056c-0.265-0.293-1.768-1.96-2.503-3.173L72.118 20.251zM73.742 27.046l0.247 0.131c0.42 0.525 0.649 1.202 0.649 1.92 0 1.576-1.134 2.864-2.528 2.864s-2.531-1.288-2.531-2.864c0-0.793 0.278-1.526 0.804-2.092 0.285-0.318 1.008-1.137 1.718-2.051 0.623 0.798 1.255 1.515 1.563 1.859L73.742 27.046zM42.665 80.031V12.254h26.858v6.27h5.174V9.667c0-1.43-1.16-2.586-2.587-2.586H17.273c-1.427 0-2.586 1.157-2.586 2.586v14.625h-4.325c-0.391 0-0.76 0.177-1.008 0.48C9.109 25.081 9.016 25.48 9.1 25.859l1.427 6.527h-2.94C6.159 32.386 5 33.543 5 34.973c0 1.43 1.159 2.586 2.586 2.586h1.526v23.986c0 4.558 3.708 8.266 8.268 8.271h0.002c2.208-0.005 4.284-0.864 5.845-2.425 1.563-1.562 2.425-3.638 2.422-5.846v-5.112c0.071-0.156 0.111-0.333 0.111-0.516 0-0.187-0.04-0.358-0.111-0.515V37.56h1.531c0.947 0 1.74-0.536 2.19-1.293h10.708v43.765c-0.758 0.45-1.293 1.243-1.293 2.192v6.815H27.299c-0.091 0-0.169 0.035-0.255 0.051-0.444-0.788-1.255-1.344-2.225-1.344h-4.062c1.283-1.895 1.665-3.996 1.076-6.22-0.5-1.889-1.18-2.854-1.725-3.627-0.73-1.035-1.309-1.854-1.309-5.391 0-0.005-0.002-0.01-0.002-0.015-0.002-0.111-0.036-0.223-0.066-0.328-0.015-0.056-0.015-0.116-0.038-0.167-0.03-0.065-0.081-0.116-0.119-0.177-0.053-0.081-0.094-0.167-0.162-0.232-0.035-0.035-0.083-0.051-0.124-0.081-0.093-0.076-0.187-0.146-0.298-0.192-0.005-0.005-0.01-0.01-0.016-0.01-0.073-0.03-0.146-0.025-0.222-0.04-0.083-0.016-0.159-0.051-0.248-0.051-0.005 0-0.013 0.005-0.018 0.005-0.088 0-0.169 0.03-0.255 0.051-0.081 0.021-0.167 0.025-0.243 0.056-0.02 0.01-0.033 0.025-0.051 0.035-0.131 0.065-0.255 0.142-0.356 0.242-0.025 0.025-0.038 0.066-0.061 0.097-0.083 0.101-0.164 0.201-0.212 0.323-0.002 0.01-0.007 0.01-0.01 0.015-0.69 1.773-1.513 3.254-2.238 4.563-1.611 2.904-3.003 5.415-1.672 8.886 0.41 1.076 1.026 1.759 1.632 2.259H9.946c-1.43 0-2.587 1.156-2.587 2.586s1.157 2.587 2.587 2.587h14.873c0.967 0 1.781-0.556 2.225-1.344 0.086 0.021 0.165 0.051 0.255 0.051h11.882c0.449 0.763 1.243 1.293 2.19 1.293 1.43 0 2.586-1.157 2.586-2.587v-8.108C43.958 81.274 43.425 80.481 42.665 80.031zM16.326 77.854c0.137-0.248 0.286-0.541 0.43-0.799 0.308 0.935 0.728 1.611 1.238 2.334 0.492 0.697 0.957 1.359 1.338 2.799 0.5 1.885-0.027 3.582-1.579 5.158-0.389-0.449-0.874-0.763-1.273-1.011-0.702-0.439-1.311-0.818-1.675-1.772C13.944 82.314 14.692 80.8 16.326 77.854zM11.969 26.88h10.935l-1.205 5.506h-8.528L11.969 26.88zM21.401 65.563c-1.076 1.071-2.503 1.667-4.021 1.667-3.132-0.005-5.681-2.551-5.681-5.684v-5.031c0.209 0.056 0.404 0.121 0.611 0.197 0.646 0.232 1.382 0.495 2.779 0.495 1.396 0 2.132-0.263 2.781-0.495 0.538-0.192 0.96-0.344 1.907-0.344s1.372 0.151 1.907 0.344c0.384 0.136 0.816 0.282 1.379 0.379v4.455C23.066 63.062 22.475 64.486 21.401 65.563zM23.063 54.443c-0.169-0.051-0.333-0.102-0.502-0.167-0.649-0.232-1.387-0.495-2.784-0.495s-2.132 0.263-2.781 0.495c-0.535 0.192-0.96 0.344-1.907 0.344-0.945 0-1.367-0.151-1.902-0.344-0.407-0.146-0.869-0.298-1.488-0.399V37.56h11.364V54.443zM29.371 33.68c-0.45-0.763-1.243-1.293-2.19-1.293h-2.832l1.424-6.527c0.083-0.379-0.01-0.778-0.255-1.086-0.248-0.303-0.617-0.48-1.008-0.48h-4.65V12.254h20.218V33.68H29.371zM14.399 48.148c0-0.712 0.579-1.293 1.293-1.293s1.293 0.581 1.293 1.293c0 0.717-0.579 1.293-1.293 1.293S14.399 48.866 14.399 48.148zM18.956 44.93c0-0.712 0.578-1.293 1.293-1.293s1.293 0.581 1.293 1.293c0 0.718-0.579 1.293-1.293 1.293S18.956 45.648 18.956 44.93zM14.849 40.515c0-0.718 0.579-1.293 1.293-1.293s1.293 0.576 1.293 1.293c0 0.712-0.578 1.293-1.293 1.293S14.849 41.227 14.849 40.515zM15.637 82.4l-0.033-0.379c-0.063-0.712 0.459-1.344 1.172-1.409 0.71-0.045 1.339 0.46 1.405 1.172l0.035 0.404c0.048 0.586 0.108 1.313 0.268 1.592 0.354 0.621 0.139 1.409-0.48 1.763-0.205 0.116-0.424 0.172-0.642 0.172-0.449 0-0.886-0.232-1.124-0.651C15.793 84.29 15.715 83.33 15.637 82.4z" fill="#5d9943" data-fill-palette-color="accent"></path></svg></g></svg></g><g><rect width="78.88621704306206" height="3.577118549426604" y="77.65044736444926" x="177.11378295693794" fill="#5d9943" data-fill-palette-color="accent"></rect><rect width="78.88621704306206" height="3.577118549426604" y="77.65044736444926" x="0" fill="#5d9943" data-fill-palette-color="accent"></rect><rect width="78.88621704306206" height="3.577118549426604" y="70.49621026559606" x="177.11378295693794" fill="#5d9943" data-fill-palette-color="accent"></rect><rect width="78.88621704306206" height="3.577118549426604" y="70.49621026559606" x="0" fill="#5d9943" data-fill-palette-color="accent"></rect></g></svg></g></svg></g></svg></g><defs></defs></svg><rect width="512" height="320" fill="none" stroke="none" visibility="hidden"></rect></g></svg></g></svg>